<svg width="40" height="40" viewBox="0 0 40 40" fill="none" xmlns="http://www.w3.org/2000/svg">
<path d="M20 40C31.0457 40 40 31.0457 40 20C40 8.95431 31.0457 0 20 0C8.95431 0 0 8.95431 0 20C0 31.0457 8.95431 40 20 40Z" fill="#3B3A3A"/>
<path d="M19.9999 36.6667C29.2047 36.6667 36.6666 29.2048 36.6666 20C36.6666 10.7953 29.2047 3.33334 19.9999 3.33334C10.7952 3.33334 3.33325 10.7953 3.33325 20C3.33325 29.2048 10.7952 36.6667 19.9999 36.6667Z" fill="white"/>
<path d="M3.99992 14L37.6666 12L36.6666 14.6667L4.99992 27.6667L36.9999 26L35.6666 27.6667L2.33325 29L3.99992 26.6667L35.6666 13.6667L2.33325 15.3333L3.99992 14Z" fill="#3B3A3A"/>
<path d="M11 37.3333L14 4.33334L15.3333 2.33334L23.3333 35L26.6667 3.66668L28 3.00001L24.3333 39L22.3333 37L15 6.00001L12.6667 35.3333L11 37.3333Z" fill="#3B3A3A"/>
</svg>
