<svg width="30" height="30" viewBox="0 0 30 30" fill="none" xmlns="http://www.w3.org/2000/svg">
<path d="M5.625 5.625C5.625 3.55664 7.30664 1.875 9.375 1.875H26.25C28.3184 1.875 30 3.55664 30 5.625V24.375C30 26.4434 28.3184 28.125 26.25 28.125H4.6875C2.09766 28.125 0 26.0273 0 23.4375V7.5C0 6.46289 0.837891 5.625 1.875 5.625C2.91211 5.625 3.75 6.46289 3.75 7.5V23.4375C3.75 23.9531 4.17187 24.375 4.6875 24.375C5.20313 24.375 5.625 23.9531 5.625 23.4375V5.625ZM9.375 7.03125V11.7188C9.375 12.498 10.002 13.125 10.7812 13.125H24.8438C25.623 13.125 26.25 12.498 26.25 11.7188V7.03125C26.25 6.25195 25.623 5.625 24.8438 5.625H10.7812C10.002 5.625 9.375 6.25195 9.375 7.03125ZM9.375 17.8125C9.375 18.3281 9.79687 18.75 10.3125 18.75H15.9375C16.4531 18.75 16.875 18.3281 16.875 17.8125C16.875 17.2969 16.4531 16.875 15.9375 16.875H10.3125C9.79687 16.875 9.375 17.2969 9.375 17.8125ZM18.75 17.8125C18.75 18.3281 19.1719 18.75 19.6875 18.75H25.3125C25.8281 18.75 26.25 18.3281 26.25 17.8125C26.25 17.2969 25.8281 16.875 25.3125 16.875H19.6875C19.1719 16.875 18.75 17.2969 18.75 17.8125ZM9.375 23.4375C9.375 23.9531 9.79687 24.375 10.3125 24.375H15.9375C16.4531 24.375 16.875 23.9531 16.875 23.4375C16.875 22.9219 16.4531 22.5 15.9375 22.5H10.3125C9.79687 22.5 9.375 22.9219 9.375 23.4375ZM18.75 23.4375C18.75 23.9531 19.1719 24.375 19.6875 24.375H25.3125C25.8281 24.375 26.25 23.9531 26.25 23.4375C26.25 22.9219 25.8281 22.5 25.3125 22.5H19.6875C19.1719 22.5 18.75 22.9219 18.75 23.4375Z" fill="#3B3A3B"/>
</svg>
