<svg width="30" height="25" viewBox="0 0 30 25" fill="none" xmlns="http://www.w3.org/2000/svg">
<g clip-path="url(#clip0_58_1368)">
<path d="M9.92814 0C10.2938 0 10.5985 0.27832 10.711 0.644531C11.2875 2.53418 12.9891 3.90625 15 3.90625C17.011 3.90625 18.7125 2.53418 19.2891 0.644531C19.4016 0.27832 19.7063 0 20.0719 0H20.6625C21.7172 0 22.7344 0.385742 23.5453 1.08887L29.461 6.2207C29.7703 6.48926 29.9625 6.87988 29.9953 7.2998C30.0281 7.71973 29.8969 8.13477 29.6297 8.45215L27.0047 11.5771C26.4703 12.2168 25.5422 12.29 24.9141 11.748L22.5 9.65332V21.875C22.5 23.5986 21.1547 25 19.5 25H10.5C8.84533 25 7.50002 23.5986 7.50002 21.875V9.65332L5.08596 11.748C4.46252 12.29 3.53439 12.2168 2.99533 11.5771L0.370331 8.45215C0.103144 8.13477 -0.0281063 7.71973 0.00470623 7.2998C0.0375187 6.87988 0.229706 6.48926 0.539081 6.2207L6.45471 1.08887C7.26564 0.385742 8.28283 0 9.33752 0H9.92814Z" fill="#3B3A3B"/>
</g>
<defs>
<clipPath id="clip0_58_1368">
<rect width="30" height="25" fill="white"/>
</clipPath>
</defs>
</svg>
