<svg width="10" height="10" viewBox="0 0 10 10" fill="none" xmlns="http://www.w3.org/2000/svg">
<g clip-path="url(#clip0_59_1561)">
<path d="M0.314505 5.08211C-0.126901 5.33406 -0.0858858 6.00593 0.384817 6.20125L3.12505 7.34382V9.3614C3.12505 9.71492 3.41021 10.0001 3.76372 10.0001C3.95318 10.0001 4.13286 9.91609 4.25396 9.7696L5.4649 8.31843L7.88482 9.32625C8.25396 9.48054 8.68169 9.23835 8.74224 8.84382L9.99224 0.718825C10.0293 0.482496 9.92583 0.244215 9.72857 0.10945C9.5313 -0.0253159 9.27349 -0.0370347 9.0645 0.0821059L0.314505 5.08211ZM1.33208 5.58015L8.00201 1.76961L3.71294 6.56257L3.73638 6.58211L1.33208 5.58015ZM7.877 8.30867L4.6231 6.95125L8.80474 2.27742L7.877 8.30867Z" fill="white"/>
</g>
<defs>
<clipPath id="clip0_59_1561">
<rect width="10" height="10" fill="white"/>
</clipPath>
</defs>
</svg>
