<svg width="221" height="23" viewBox="0 0 221 23" fill="none" xmlns="http://www.w3.org/2000/svg">
<path d="M5.96 22.07C5 22.07 4.12 21.92 3.32 21.62C2.5 21.34 1.82 20.89 1.28 20.27C0.74 19.65 0.379999 18.82 0.199999 17.78C0.159999 17.62 0.199999 17.54 0.32 17.54C0.4 17.54 0.46 17.61 0.5 17.75C0.72 18.87 1.27 19.78 2.15 20.48C3.01 21.18 4 21.53 5.12 21.53C6.16 21.53 7.21 21.25 8.27 20.69C9.33 20.15 10.36 19.4 11.36 18.44C12.36 17.5 13.3 16.43 14.18 15.23C15.12 13.95 15.97 12.62 16.73 11.24C17.51 9.86 18.26 8.47 18.98 7.07C18.72 7.45 18.45 7.84 18.17 8.24C17.89 8.64 17.61 9.01 17.33 9.35C16.79 10.03 16.17 10.73 15.47 11.45C14.79 12.15 14.11 12.75 13.43 13.25C12.75 13.73 12.13 13.97 11.57 13.97C11.13 13.97 10.76 13.85 10.46 13.61C10.18 13.37 10.04 13 10.04 12.5C10.04 12.06 10.12 11.66 10.28 11.3C10.44 10.92 10.62 10.57 10.82 10.25C11.16 9.69 11.57 9.12 12.05 8.54C12.53 7.96 12.95 7.47 13.31 7.07C13.53 6.81 13.64 6.6 13.64 6.44C13.64 6.24 13.53 6.14 13.31 6.14C13.05 6.14 12.72 6.3 12.32 6.62C11.84 6.96 11.35 7.37 10.85 7.85C10.35 8.31 9.88 8.75 9.44 9.17C9 9.59 8.64 9.92 8.36 10.16C8.22 10.26 8.12 10.31 8.06 10.31C7.98 10.31 7.94 10.27 7.94 10.19C7.94 10.07 8.01 9.95 8.15 9.83C8.55 9.49 8.97 9.09 9.41 8.63C9.87 8.17 10.32 7.72 10.76 7.28C11.22 6.82 11.64 6.45 12.02 6.17C12.32 5.93 12.63 5.76 12.95 5.66C13.27 5.54 13.57 5.48 13.85 5.48C14.33 5.48 14.73 5.62 15.05 5.9C15.39 6.18 15.56 6.57 15.56 7.07C15.56 7.45 15.46 7.85 15.26 8.27C15.02 8.77 14.71 9.27 14.33 9.77C13.97 10.25 13.62 10.72 13.28 11.18C13.02 11.56 12.83 11.87 12.71 12.11C12.59 12.35 12.53 12.52 12.53 12.62C12.53 12.8 12.61 12.89 12.77 12.89C12.93 12.89 13.16 12.8 13.46 12.62C13.78 12.44 14.1 12.21 14.42 11.93C14.96 11.43 15.55 10.82 16.19 10.1C16.85 9.36 17.49 8.59 18.11 7.79C18.73 6.99 19.27 6.25 19.73 5.57C20.01 4.91 20.31 4.33 20.63 3.83C20.95 3.33 21.36 3.08 21.86 3.08C22.14 3.08 22.36 3.16 22.52 3.32C22.7 3.48 22.79 3.64 22.79 3.8C22.79 3.94 22.73 4.06 22.61 4.16C22.49 4.24 22.29 4.27 22.01 4.25C21.79 4.21 21.54 4.25 21.26 4.37C20.98 4.49 20.69 4.87 20.39 5.51C20.07 6.23 19.76 7.07 19.46 8.03C19.18 8.99 18.84 10.02 18.44 11.12C18.04 12.22 17.51 13.35 16.85 14.51C16.21 15.69 15.35 16.85 14.27 17.99C13.21 19.11 11.95 20.07 10.49 20.87C9.05 21.67 7.54 22.07 5.96 22.07ZM32.1141 15.17C31.8541 15.07 31.5941 14.89 31.3341 14.63C31.0941 14.37 30.9741 13.92 30.9741 13.28C30.9741 12.74 31.0641 12.18 31.2441 11.6C31.4241 11 31.6541 10.41 31.9341 9.83C31.4141 10.49 30.8441 11.14 30.2241 11.78C29.6241 12.42 29.0141 12.95 28.3941 13.37C27.7941 13.77 27.2341 13.97 26.7141 13.97C26.2741 13.97 25.9041 13.85 25.6041 13.61C25.3241 13.37 25.1841 13 25.1841 12.5C25.1841 12.14 25.2541 11.75 25.3941 11.33C25.5341 10.91 25.7841 10.44 26.1441 9.92C26.5041 9.4 26.8941 8.89 27.3141 8.39C27.7541 7.87 28.1341 7.43 28.4541 7.07C28.6741 6.81 28.7841 6.6 28.7841 6.44C28.7841 6.24 28.6741 6.14 28.4541 6.14C28.2141 6.14 27.8741 6.3 27.4341 6.62C26.9741 6.96 26.4841 7.38 25.9641 7.88C25.4441 8.36 24.9541 8.83 24.4941 9.29C24.0341 9.73 23.6441 10.08 23.3241 10.34C23.2641 10.4 23.2041 10.43 23.1441 10.43C23.0441 10.43 22.9941 10.37 22.9941 10.25C22.9941 10.15 23.0841 10.02 23.2641 9.86C24.1441 9.1 24.8741 8.41 25.4541 7.79C26.0341 7.15 26.6041 6.61 27.1641 6.17C27.4641 5.93 27.7741 5.76 28.0941 5.66C28.4141 5.54 28.7141 5.48 28.9941 5.48C29.4741 5.48 29.8741 5.62 30.1941 5.9C30.5141 6.18 30.6741 6.57 30.6741 7.07C30.6741 7.45 30.5741 7.85 30.3741 8.27C30.1541 8.77 29.8541 9.27 29.4741 9.77C29.1141 10.25 28.7641 10.72 28.4241 11.18C28.1641 11.56 27.9741 11.87 27.8541 12.11C27.7341 12.35 27.6741 12.53 27.6741 12.65C27.6741 12.81 27.7541 12.89 27.9141 12.89C28.0741 12.89 28.3041 12.8 28.6041 12.62C28.9041 12.44 29.2141 12.21 29.5341 11.93C29.7541 11.73 29.9441 11.55 30.1041 11.39C30.2841 11.21 30.4141 11.08 30.4941 11C30.9541 10.52 31.4141 10.01 31.8741 9.47C32.3341 8.91 32.7341 8.4 33.0741 7.94C33.3341 7.6 33.5341 7.34 33.6741 7.16C33.8341 6.98 34.0041 6.79 34.1841 6.59C34.5241 6.21 34.8841 6.01 35.2641 5.99C35.4841 5.99 35.7341 6.04 36.0141 6.14C36.3141 6.22 36.6041 6.39 36.8841 6.65C36.6841 6.93 36.3841 7.32 35.9841 7.82C35.6041 8.3 35.1841 8.84 34.7241 9.44C34.2841 10.02 33.8541 10.62 33.4341 11.24C33.0341 11.86 32.7041 12.44 32.4441 12.98C32.1841 13.52 32.0541 13.99 32.0541 14.39C32.0541 14.67 32.1341 14.89 32.2941 15.05C32.3741 15.13 32.3741 15.17 32.2941 15.17C32.2141 15.19 32.1541 15.19 32.1141 15.17ZM41.2937 14.51C40.6537 14.51 40.1637 14.32 39.8237 13.94C39.4837 13.56 39.3137 13.03 39.3137 12.35C39.3137 11.71 39.4837 10.96 39.8237 10.1L39.8837 9.95L39.3437 10.46C39.2637 10.54 39.1737 10.58 39.0737 10.58C38.9737 10.58 38.9237 10.54 38.9237 10.46C38.9237 10.36 38.9937 10.24 39.1337 10.1C39.6537 9.64 40.1837 9.16 40.7237 8.66C41.2837 8.14 41.7537 7.65 42.1337 7.19C41.9937 7.25 41.8437 7.28 41.6837 7.28C41.5237 7.28 41.4037 7.24 41.3237 7.16C41.1837 7.06 41.1137 6.88 41.1137 6.62C41.1137 6.4 41.2137 6.17 41.4137 5.93C41.6337 5.69 42.0737 5.48 42.7337 5.3C42.8737 5.26 43.0137 5.23 43.1537 5.21C43.3137 5.19 43.4637 5.17 43.6037 5.15C44.2437 4.25 44.8037 3.42 45.2837 2.66C45.7637 1.88 46.1437 1.36 46.4237 1.1C46.5437 0.96 46.7537 0.84 47.0537 0.739999C47.3737 0.639999 47.7037 0.559999 48.0437 0.499999C48.4037 0.44 48.6837 0.41 48.8837 0.41C49.5437 0.41 49.8737 0.47 49.8737 0.589999C49.8737 0.669999 49.7237 0.859999 49.4237 1.16C48.9237 1.64 48.3337 2.24 47.6537 2.96C46.9937 3.66 46.3137 4.42 45.6137 5.24C46.1937 5.32 46.7237 5.47 47.2037 5.69C47.7037 5.91 48.0637 6.19 48.2837 6.53C48.3637 6.63 48.4037 6.75 48.4037 6.89C48.4037 7.05 48.3537 7.13 48.2537 7.13C48.1737 7.13 48.0837 7.08 47.9837 6.98C47.5637 6.56 46.8637 6.35 45.8837 6.35C45.6837 6.35 45.4737 6.36 45.2537 6.38C45.0537 6.4 44.8437 6.43 44.6237 6.47C43.9437 7.35 43.3237 8.23 42.7637 9.11C42.2037 9.99 41.8037 10.81 41.5637 11.57C41.4437 11.93 41.3837 12.26 41.3837 12.56C41.3837 12.86 41.4537 13.11 41.5937 13.31C41.7337 13.49 41.9437 13.58 42.2237 13.58C42.4037 13.58 42.6237 13.53 42.8837 13.43C43.2637 13.29 43.7037 13.06 44.2037 12.74C44.7037 12.4 45.2037 12.02 45.7037 11.6C46.2237 11.18 46.7037 10.77 47.1437 10.37C47.6037 9.97 47.9837 9.63 48.2837 9.35C48.5837 9.07 48.7537 8.91 48.7937 8.87C48.8537 8.81 48.9037 8.78 48.9437 8.78C49.0237 8.78 49.0637 8.84 49.0637 8.96C49.0637 9.1 49.0037 9.23 48.8837 9.35C48.6837 9.55 48.3737 9.85 47.9537 10.25C47.5537 10.65 47.0837 11.1 46.5437 11.6C46.0237 12.08 45.4637 12.54 44.8637 12.98C44.2637 13.42 43.6537 13.78 43.0337 14.06C42.4337 14.36 41.8537 14.51 41.2937 14.51ZM51.7133 14.03C51.0933 14.03 50.6133 13.84 50.2733 13.46C49.9333 13.06 49.7633 12.55 49.7633 11.93C49.7633 11.35 49.9133 10.71 50.2133 10.01C50.5333 9.31 51.0333 8.6 51.7133 7.88C52.4133 7.12 53.2833 6.51 54.3233 6.05C55.3633 5.57 56.3533 5.33 57.2933 5.33C58.0533 5.33 58.7033 5.5 59.2433 5.84C59.7833 6.16 60.1433 6.57 60.3233 7.07C60.5433 7.07 60.8133 7.13 61.1333 7.25C61.4733 7.37 61.6433 7.59 61.6433 7.91C61.6433 8.13 61.5333 8.38 61.3133 8.66C61.1733 8.86 60.9233 9.16 60.5633 9.56C60.2233 9.96 59.9033 10.39 59.6033 10.85C59.3633 11.21 59.1733 11.55 59.0333 11.87C58.8933 12.17 58.8233 12.43 58.8233 12.65C58.8233 12.95 58.9733 13.1 59.2733 13.1C59.6133 13.1 60.1233 12.91 60.8033 12.53C61.5433 12.11 62.2533 11.63 62.9333 11.09C63.6133 10.55 64.1433 10.12 64.5233 9.8C64.6233 9.72 64.6933 9.68 64.7333 9.68C64.8133 9.68 64.8533 9.73 64.8533 9.83C64.8533 9.95 64.8033 10.06 64.7033 10.16C64.5233 10.32 64.1733 10.62 63.6533 11.06C63.1333 11.5 62.5333 11.96 61.8533 12.44C61.1933 12.92 60.5433 13.31 59.9033 13.61C59.5833 13.75 59.2833 13.86 59.0033 13.94C58.7433 14 58.5033 14.03 58.2833 14.03C57.7433 14.03 57.3333 13.88 57.0533 13.58C56.7733 13.26 56.6333 12.85 56.6333 12.35C56.6333 12.15 56.6633 11.94 56.7233 11.72C56.7833 11.5 56.8533 11.28 56.9333 11.06L57.1433 10.55C56.6233 11.19 56.1033 11.73 55.5833 12.17C55.0633 12.59 54.5433 12.96 54.0233 13.28C53.5833 13.54 53.1633 13.73 52.7633 13.85C52.3833 13.97 52.0333 14.03 51.7133 14.03ZM52.6433 13.25C53.0033 13.25 53.5233 13.04 54.2033 12.62C54.8833 12.18 55.6733 11.51 56.5733 10.61C56.6933 10.49 56.9133 10.28 57.2333 9.98C57.5733 9.66 57.9333 9.31 58.3133 8.93C58.6933 8.53 59.0133 8.14 59.2733 7.76C59.5533 7.36 59.6933 7.03 59.6933 6.77C59.6933 6.39 59.3633 6.2 58.7033 6.2C58.1233 6.2 57.4233 6.43 56.6033 6.89C55.8033 7.33 55.0333 7.99 54.2933 8.87C53.5333 9.77 52.9733 10.55 52.6133 11.21C52.2733 11.85 52.1033 12.34 52.1033 12.68C52.1033 13.06 52.2833 13.25 52.6433 13.25ZM71.2309 14.03C70.3709 14.03 69.7909 13.87 69.4909 13.55C69.1909 13.21 69.0409 12.84 69.0409 12.44C69.0409 11.92 69.2409 11.37 69.6409 10.79C69.8809 10.45 70.1509 10.07 70.4509 9.65C70.7509 9.21 71.0309 8.8 71.2909 8.42C71.5509 8.04 71.7309 7.77 71.8309 7.61C71.9709 7.41 72.0509 7.28 72.0709 7.22C72.1109 7.14 72.1309 7.06 72.1309 6.98C72.1309 6.86 72.0509 6.75 71.8909 6.65C71.7509 6.53 71.5109 6.47 71.1709 6.47C71.0709 6.47 70.9809 6.48 70.9009 6.5C70.8409 6.5 70.7709 6.5 70.6909 6.5C70.5309 6.5 70.4409 6.49 70.4209 6.47L70.3309 6.59C69.7709 7.33 69.1709 8.06 68.5309 8.78C67.8909 9.48 67.1909 10.13 66.4309 10.73C66.3509 10.79 66.2909 10.82 66.2509 10.82C66.1709 10.82 66.1309 10.78 66.1309 10.7C66.1309 10.54 66.2509 10.36 66.4909 10.16C67.1109 9.64 67.7209 9.06 68.3209 8.42C68.9209 7.76 69.4609 7.07 69.9409 6.35C69.7609 6.23 69.6709 5.99 69.6709 5.63C69.6709 5.09 69.8409 4.51 70.1809 3.89C70.4209 3.47 70.6809 3.16 70.9609 2.96C71.2609 2.74 71.5209 2.63 71.7409 2.63C72.1609 2.63 72.3709 2.88 72.3709 3.38C72.3709 3.7 72.2509 4.1 72.0109 4.58C71.9109 4.82 71.7109 5.13 71.4109 5.51C71.1309 5.87 70.8509 6.13 70.5709 6.29C70.9909 6.15 71.5209 6.06 72.1609 6.02C72.8209 5.96 73.3709 5.93 73.8109 5.93C74.0709 5.93 74.3909 6.01 74.7709 6.17C75.1509 6.31 75.3409 6.57 75.3409 6.95C75.3409 7.21 75.2209 7.49 74.9809 7.79C74.9209 7.87 74.7609 8.06 74.5009 8.36C74.2409 8.66 73.9509 9.02 73.6309 9.44C73.3309 9.86 73.0509 10.28 72.7909 10.7C72.5309 11.08 72.3209 11.43 72.1609 11.75C72.0209 12.07 71.9509 12.34 71.9509 12.56C71.9509 12.88 72.1309 13.04 72.4909 13.04C72.9109 13.04 73.4709 12.84 74.1709 12.44C74.8709 12.04 75.6209 11.53 76.4209 10.91C77.2409 10.27 77.9909 9.61 78.6709 8.93C78.7509 8.85 78.8209 8.81 78.8809 8.81C78.9609 8.81 79.0009 8.86 79.0009 8.96C79.0009 9.08 78.9509 9.19 78.8509 9.29C78.1509 9.99 77.3709 10.71 76.5109 11.45C75.6709 12.17 74.7909 12.78 73.8709 13.28C72.9709 13.78 72.0909 14.03 71.2309 14.03ZM82.2807 14.27C81.5007 14.27 80.9107 14.08 80.5107 13.7C80.1307 13.3 79.9407 12.79 79.9407 12.17C79.9407 11.79 79.9907 11.42 80.0907 11.06C80.1907 10.7 80.3007 10.38 80.4207 10.1C80.2807 10.24 80.1407 10.37 80.0007 10.49C79.8807 10.59 79.7807 10.67 79.7007 10.73C79.6207 10.79 79.5507 10.82 79.4907 10.82C79.4107 10.82 79.3707 10.77 79.3707 10.67C79.3707 10.53 79.4707 10.37 79.6707 10.19C80.3707 9.61 80.9207 9.1 81.3207 8.66C81.7207 8.2 82.1407 7.78 82.5807 7.4C83.3207 6.76 84.1107 6.26 84.9507 5.9C85.7907 5.54 86.6307 5.36 87.4707 5.36C88.3507 5.36 89.0407 5.57 89.5407 5.99C90.0407 6.41 90.2907 7.03 90.2907 7.85C90.2907 8.31 90.1507 8.84 89.8707 9.44C89.6107 10.04 89.1907 10.66 88.6107 11.3C88.3707 11.56 88.1007 11.82 87.8007 12.08C87.5007 12.32 87.2407 12.5 87.0207 12.62C88.0007 12.52 88.9207 12.18 89.7807 11.6C90.6407 11 91.4107 10.41 92.0907 9.83C92.1907 9.77 92.2607 9.74 92.3007 9.74C92.4007 9.74 92.4507 9.79 92.4507 9.89C92.4507 9.97 92.4007 10.06 92.3007 10.16C91.4407 10.98 90.5107 11.67 89.5107 12.23C88.5307 12.79 87.4407 13.06 86.2407 13.04C85.5407 13.42 84.8507 13.72 84.1707 13.94C83.5107 14.16 82.8807 14.27 82.2807 14.27ZM83.6307 13.43C83.9107 13.43 84.2107 13.38 84.5307 13.28C84.8507 13.18 85.1707 13.05 85.4907 12.89C85.3707 12.89 85.2507 12.83 85.1307 12.71C85.0307 12.59 84.9807 12.43 84.9807 12.23C84.9807 11.83 85.1307 11.42 85.4307 11C85.7307 10.58 86.1007 10.22 86.5407 9.92C86.9807 9.62 87.4107 9.47 87.8307 9.47C88.0707 9.47 88.2907 9.54 88.4907 9.68C88.7107 9.8 88.8307 9.97 88.8507 10.19C89.1907 9.81 89.4207 9.4 89.5407 8.96C89.6807 8.52 89.7507 8.11 89.7507 7.73C89.7507 7.21 89.5807 6.82 89.2407 6.56C88.9207 6.28 88.4807 6.14 87.9207 6.14C87.3807 6.14 86.7807 6.33 86.1207 6.71C85.4807 7.09 84.8707 7.58 84.2907 8.18C83.7307 8.78 83.2607 9.43 82.8807 10.13C82.5207 10.83 82.3407 11.5 82.3407 12.14C82.3407 13 82.7707 13.43 83.6307 13.43ZM104.601 14.15C104.401 14.15 104.161 14.1 103.881 14C103.601 13.92 103.321 13.76 103.041 13.52C103.261 13.22 103.581 12.82 104.001 12.32C104.401 11.8 104.831 11.23 105.291 10.61C105.751 9.99 106.181 9.37 106.581 8.75C106.261 9.07 105.911 9.41 105.531 9.77C105.151 10.13 104.771 10.46 104.391 10.76C104.311 10.82 104.231 10.85 104.151 10.85C104.071 10.85 104.031 10.81 104.031 10.73C104.031 10.61 104.121 10.47 104.301 10.31C104.861 9.81 105.471 9.25 106.131 8.63C106.811 8.01 107.311 7.36 107.631 6.68C107.731 6.44 107.781 6.22 107.781 6.02C107.781 5.76 107.731 5.6 107.631 5.54C107.551 5.48 107.511 5.4 107.511 5.3C107.511 5.12 107.601 5.03 107.781 5.03C107.881 5.03 107.961 5.05 108.021 5.09C108.241 5.19 108.451 5.38 108.651 5.66C108.851 5.94 108.951 6.37 108.951 6.95C108.951 7.49 108.841 8.09 108.621 8.75C108.841 8.41 109.061 8.09 109.281 7.79C109.501 7.47 109.711 7.18 109.911 6.92C110.311 6.4 110.731 6.01 111.171 5.75C111.631 5.47 112.031 5.33 112.371 5.33C112.931 5.33 113.211 5.65 113.211 6.29C113.211 6.65 113.091 7.12 112.851 7.7C112.631 8.2 112.331 8.8 111.951 9.5C112.291 9.04 112.631 8.6 112.971 8.18C113.331 7.76 113.641 7.41 113.901 7.13C114.481 6.55 115.031 6.13 115.551 5.87C116.091 5.61 116.581 5.48 117.021 5.48C117.541 5.48 117.951 5.63 118.251 5.93C118.571 6.21 118.731 6.6 118.731 7.1C118.731 7.46 118.641 7.85 118.461 8.27C118.341 8.51 118.141 8.83 117.861 9.23C117.581 9.63 117.281 10.05 116.961 10.49C116.641 10.93 116.371 11.33 116.151 11.69C115.931 12.05 115.821 12.31 115.821 12.47C115.821 12.67 115.931 12.77 116.151 12.77C116.491 12.77 116.881 12.62 117.321 12.32C117.841 11.96 118.401 11.53 119.001 11.03C119.601 10.53 120.091 10.12 120.471 9.8C120.551 9.72 120.621 9.68 120.681 9.68C120.761 9.68 120.801 9.73 120.801 9.83C120.801 9.95 120.751 10.06 120.651 10.16C120.351 10.44 119.961 10.79 119.481 11.21C119.021 11.63 118.521 12.05 117.981 12.47C117.441 12.89 116.911 13.25 116.391 13.55C115.871 13.83 115.411 13.97 115.011 13.97C114.491 13.97 114.061 13.85 113.721 13.61C113.401 13.37 113.241 12.99 113.241 12.47C113.241 12.13 113.311 11.75 113.451 11.33C113.591 10.91 113.871 10.42 114.291 9.86C114.711 9.28 115.161 8.72 115.641 8.18C116.121 7.62 116.521 7.16 116.841 6.8C117.081 6.52 117.201 6.31 117.201 6.17C117.201 5.99 117.081 5.9 116.841 5.9C116.561 5.9 116.141 6.05 115.581 6.35C115.041 6.65 114.461 7.13 113.841 7.79C113.441 8.21 113.031 8.74 112.611 9.38C112.211 10.02 111.851 10.67 111.531 11.33C111.211 11.97 110.961 12.54 110.781 13.04C110.641 13.4 110.381 13.58 110.001 13.58C109.801 13.58 109.611 13.52 109.431 13.4C109.271 13.28 109.231 13.15 109.311 13.01C109.811 12.13 110.301 11.26 110.781 10.4C111.281 9.54 111.731 8.64 112.131 7.7C112.411 7.08 112.551 6.61 112.551 6.29C112.551 6.01 112.431 5.87 112.191 5.87C111.951 5.87 111.621 6.02 111.201 6.32C110.801 6.6 110.451 6.92 110.151 7.28C109.671 7.84 109.211 8.47 108.771 9.17C108.331 9.85 107.951 10.47 107.631 11.03C107.371 11.45 107.101 11.86 106.821 12.26C106.541 12.66 106.231 13.04 105.891 13.4C105.451 13.9 105.021 14.15 104.601 14.15ZM129.369 4.82C129.089 4.82 128.879 4.73 128.739 4.55C128.599 4.37 128.529 4.18 128.529 3.98C128.529 3.58 128.719 3.19 129.099 2.81C129.479 2.41 129.879 2.21 130.299 2.21C130.579 2.21 130.789 2.3 130.929 2.48C131.069 2.66 131.139 2.85 131.139 3.05C131.139 3.47 130.949 3.87 130.569 4.25C130.209 4.63 129.809 4.82 129.369 4.82ZM124.779 14.03C123.959 14.03 123.399 13.86 123.099 13.52C122.819 13.16 122.679 12.76 122.679 12.32C122.679 11.96 122.739 11.62 122.859 11.3C122.979 10.96 123.079 10.72 123.159 10.58C123.279 10.38 123.439 10.15 123.639 9.89C123.859 9.63 124.099 9.35 124.359 9.05C123.959 9.39 123.579 9.72 123.219 10.04C122.879 10.36 122.599 10.6 122.379 10.76C122.319 10.82 122.259 10.85 122.199 10.85C122.119 10.85 122.079 10.8 122.079 10.7C122.079 10.54 122.189 10.38 122.409 10.22C122.929 9.78 123.429 9.3 123.909 8.78C124.409 8.26 124.879 7.78 125.319 7.34C125.759 6.88 126.149 6.56 126.489 6.38C126.849 6.18 127.139 6.05 127.359 5.99C127.579 5.93 127.759 5.9 127.899 5.9C128.119 5.9 128.279 5.94 128.379 6.02C128.479 6.08 128.499 6.15 128.439 6.23C128.099 6.57 127.759 7.01 127.419 7.55C127.099 8.07 126.799 8.62 126.519 9.2C126.239 9.78 126.009 10.33 125.829 10.85C125.669 11.37 125.589 11.81 125.589 12.17C125.589 12.67 125.789 12.92 126.189 12.92C126.569 12.92 127.059 12.75 127.659 12.41C128.279 12.05 128.919 11.6 129.579 11.06C130.259 10.52 130.889 9.99 131.469 9.47C131.549 9.39 131.619 9.35 131.679 9.35C131.779 9.35 131.829 9.4 131.829 9.5C131.849 9.6 131.829 9.67 131.769 9.71C131.109 10.33 130.359 10.98 129.519 11.66C128.699 12.32 127.869 12.88 127.029 13.34C126.209 13.8 125.459 14.03 124.779 14.03ZM131.3 22.07C130.34 22.07 129.46 21.92 128.66 21.62C127.84 21.34 127.16 20.89 126.62 20.27C126.08 19.65 125.72 18.82 125.54 17.78C125.5 17.62 125.54 17.54 125.66 17.54C125.74 17.54 125.8 17.61 125.84 17.75C126.06 18.87 126.61 19.78 127.49 20.48C128.35 21.18 129.34 21.53 130.46 21.53C131.5 21.53 132.55 21.25 133.61 20.69C134.67 20.15 135.7 19.4 136.7 18.44C137.7 17.5 138.64 16.43 139.52 15.23C140.46 13.95 141.31 12.62 142.07 11.24C142.85 9.86 143.6 8.47 144.32 7.07C144.06 7.45 143.79 7.84 143.51 8.24C143.23 8.64 142.95 9.01 142.67 9.35C142.13 10.03 141.51 10.73 140.81 11.45C140.13 12.15 139.45 12.75 138.77 13.25C138.09 13.73 137.47 13.97 136.91 13.97C136.47 13.97 136.1 13.85 135.8 13.61C135.52 13.37 135.38 13 135.38 12.5C135.38 12.06 135.46 11.66 135.62 11.3C135.78 10.92 135.96 10.57 136.16 10.25C136.5 9.69 136.91 9.12 137.39 8.54C137.87 7.96 138.29 7.47 138.65 7.07C138.87 6.81 138.98 6.6 138.98 6.44C138.98 6.24 138.87 6.14 138.65 6.14C138.39 6.14 138.06 6.3 137.66 6.62C137.18 6.96 136.69 7.37 136.19 7.85C135.69 8.31 135.22 8.75 134.78 9.17C134.34 9.59 133.98 9.92 133.7 10.16C133.56 10.26 133.46 10.31 133.4 10.31C133.32 10.31 133.28 10.27 133.28 10.19C133.28 10.07 133.35 9.95 133.49 9.83C133.89 9.49 134.31 9.09 134.75 8.63C135.21 8.17 135.66 7.72 136.1 7.28C136.56 6.82 136.98 6.45 137.36 6.17C137.66 5.93 137.97 5.76 138.29 5.66C138.61 5.54 138.91 5.48 139.19 5.48C139.67 5.48 140.07 5.62 140.39 5.9C140.73 6.18 140.9 6.57 140.9 7.07C140.9 7.45 140.8 7.85 140.6 8.27C140.36 8.77 140.05 9.27 139.67 9.77C139.31 10.25 138.96 10.72 138.62 11.18C138.36 11.56 138.17 11.87 138.05 12.11C137.93 12.35 137.87 12.52 137.87 12.62C137.87 12.8 137.95 12.89 138.11 12.89C138.27 12.89 138.5 12.8 138.8 12.62C139.12 12.44 139.44 12.21 139.76 11.93C140.3 11.43 140.89 10.82 141.53 10.1C142.19 9.36 142.83 8.59 143.45 7.79C144.07 6.99 144.61 6.25 145.07 5.57C145.35 4.91 145.65 4.33 145.97 3.83C146.29 3.33 146.7 3.08 147.2 3.08C147.48 3.08 147.7 3.16 147.86 3.32C148.04 3.48 148.13 3.64 148.13 3.8C148.13 3.94 148.07 4.06 147.95 4.16C147.83 4.24 147.63 4.27 147.35 4.25C147.13 4.21 146.88 4.25 146.6 4.37C146.32 4.49 146.03 4.87 145.73 5.51C145.41 6.23 145.1 7.07 144.8 8.03C144.52 8.99 144.18 10.02 143.78 11.12C143.38 12.22 142.85 13.35 142.19 14.51C141.55 15.69 140.69 16.85 139.61 17.99C138.55 19.11 137.29 20.07 135.83 20.87C134.39 21.67 132.88 22.07 131.3 22.07ZM150.72 14.03C150.1 14.03 149.62 13.84 149.28 13.46C148.94 13.06 148.77 12.55 148.77 11.93C148.77 11.35 148.92 10.71 149.22 10.01C149.54 9.31 150.04 8.6 150.72 7.88C151.42 7.12 152.29 6.51 153.33 6.05C154.37 5.57 155.36 5.33 156.3 5.33C157.06 5.33 157.71 5.5 158.25 5.84C158.79 6.16 159.15 6.57 159.33 7.07C159.55 7.07 159.82 7.13 160.14 7.25C160.48 7.37 160.65 7.59 160.65 7.91C160.65 8.13 160.54 8.38 160.32 8.66C160.18 8.86 159.93 9.16 159.57 9.56C159.23 9.96 158.91 10.39 158.61 10.85C158.37 11.21 158.18 11.55 158.04 11.87C157.9 12.17 157.83 12.43 157.83 12.65C157.83 12.95 157.98 13.1 158.28 13.1C158.62 13.1 159.13 12.91 159.81 12.53C160.55 12.11 161.26 11.63 161.94 11.09C162.62 10.55 163.15 10.12 163.53 9.8C163.63 9.72 163.7 9.68 163.74 9.68C163.82 9.68 163.86 9.73 163.86 9.83C163.86 9.95 163.81 10.06 163.71 10.16C163.53 10.32 163.18 10.62 162.66 11.06C162.14 11.5 161.54 11.96 160.86 12.44C160.2 12.92 159.55 13.31 158.91 13.61C158.59 13.75 158.29 13.86 158.01 13.94C157.75 14 157.51 14.03 157.29 14.03C156.75 14.03 156.34 13.88 156.06 13.58C155.78 13.26 155.64 12.85 155.64 12.35C155.64 12.15 155.67 11.94 155.73 11.72C155.79 11.5 155.86 11.28 155.94 11.06L156.15 10.55C155.63 11.19 155.11 11.73 154.59 12.17C154.07 12.59 153.55 12.96 153.03 13.28C152.59 13.54 152.17 13.73 151.77 13.85C151.39 13.97 151.04 14.03 150.72 14.03ZM151.65 13.25C152.01 13.25 152.53 13.04 153.21 12.62C153.89 12.18 154.68 11.51 155.58 10.61C155.7 10.49 155.92 10.28 156.24 9.98C156.58 9.66 156.94 9.31 157.32 8.93C157.7 8.53 158.02 8.14 158.28 7.76C158.56 7.36 158.7 7.03 158.7 6.77C158.7 6.39 158.37 6.2 157.71 6.2C157.13 6.2 156.43 6.43 155.61 6.89C154.81 7.33 154.04 7.99 153.3 8.87C152.54 9.77 151.98 10.55 151.62 11.21C151.28 11.85 151.11 12.34 151.11 12.68C151.11 13.06 151.29 13.25 151.65 13.25ZM159.835 22.97C158.815 22.97 158.055 22.82 157.555 22.52C157.035 22.24 156.775 21.87 156.775 21.41C156.775 20.77 157.255 20.04 158.215 19.22C159.155 18.4 160.565 17.64 162.445 16.94C163.405 16.56 164.395 16.25 165.415 16.01C166.435 15.79 167.435 15.68 168.415 15.68C168.715 15.68 169.015 15.69 169.315 15.71C169.615 15.75 169.905 15.79 170.185 15.83C170.545 15.91 170.855 16.03 171.115 16.19C171.375 16.37 171.505 16.53 171.505 16.67C171.505 16.79 171.425 16.83 171.265 16.79C171.125 16.75 170.965 16.72 170.785 16.7C170.625 16.68 170.445 16.67 170.245 16.67C169.625 16.67 168.915 16.74 168.115 16.88C167.315 17.04 166.495 17.24 165.655 17.48C164.815 17.74 164.015 18.02 163.255 18.32C162.055 18.76 161.095 19.29 160.375 19.91C159.655 20.55 159.295 21.1 159.295 21.56C159.295 21.8 159.425 22 159.685 22.16C159.925 22.32 160.325 22.4 160.885 22.4C161.465 22.4 162.145 22.31 162.925 22.13C163.685 21.97 164.455 21.75 165.235 21.47C165.995 21.21 166.685 20.95 167.305 20.69C168.485 20.19 169.565 19.55 170.545 18.77C171.545 18.01 172.335 17.2 172.915 16.34C173.515 15.5 173.815 14.73 173.815 14.03C173.815 13.39 173.515 12.87 172.915 12.47C172.335 12.05 171.365 11.84 170.005 11.84C169.325 11.84 168.645 11.89 167.965 11.99C167.305 12.07 166.735 12.16 166.255 12.26C165.795 12.36 165.535 12.41 165.475 12.41C165.275 12.41 165.175 12.33 165.175 12.17C165.175 11.97 165.295 11.74 165.535 11.48C165.775 11.22 166.005 11.05 166.225 10.97C166.705 10.81 167.275 10.65 167.935 10.49C168.615 10.33 169.505 10.03 170.605 9.59C171.265 9.31 171.865 9.03 172.405 8.75C172.965 8.47 173.245 8.23 173.245 8.03C173.245 7.89 173.115 7.8 172.855 7.76C172.615 7.7 172.315 7.66 171.955 7.64C171.615 7.62 171.285 7.61 170.965 7.61C170.485 7.61 169.965 7.64 169.405 7.7C168.845 7.76 168.355 7.87 167.935 8.03C167.515 8.19 167.245 8.44 167.125 8.78C166.825 8.6 166.675 8.32 166.675 7.94C166.675 7.26 167.035 6.71 167.755 6.29C168.175 6.03 168.695 5.83 169.315 5.69C169.955 5.55 170.675 5.48 171.475 5.48C172.655 5.48 173.505 5.63 174.025 5.93C174.565 6.23 174.835 6.6 174.835 7.04C174.835 7.68 174.385 8.29 173.485 8.87C173.085 9.13 172.585 9.38 171.985 9.62C171.405 9.84 170.765 10.06 170.065 10.28C170.265 10.26 170.455 10.25 170.635 10.25C170.835 10.23 171.025 10.22 171.205 10.22C172.685 10.22 173.835 10.49 174.655 11.03C175.475 11.57 175.885 12.29 175.885 13.19C175.885 13.87 175.605 14.64 175.045 15.5C174.505 16.38 173.645 17.28 172.465 18.2C171.605 18.88 170.715 19.47 169.795 19.97C168.895 20.49 168.155 20.87 167.575 21.11C166.375 21.63 165.085 22.07 163.705 22.43C162.305 22.79 161.015 22.97 159.835 22.97ZM181.874 14.27C181.094 14.27 180.504 14.08 180.104 13.7C179.724 13.3 179.534 12.79 179.534 12.17C179.534 11.79 179.584 11.42 179.684 11.06C179.784 10.7 179.894 10.38 180.014 10.1C179.874 10.24 179.734 10.37 179.594 10.49C179.474 10.59 179.374 10.67 179.294 10.73C179.214 10.79 179.144 10.82 179.084 10.82C179.004 10.82 178.964 10.77 178.964 10.67C178.964 10.53 179.064 10.37 179.264 10.19C179.964 9.61 180.514 9.1 180.914 8.66C181.314 8.2 181.734 7.78 182.174 7.4C182.914 6.76 183.704 6.26 184.544 5.9C185.384 5.54 186.224 5.36 187.064 5.36C187.944 5.36 188.634 5.57 189.134 5.99C189.634 6.41 189.884 7.03 189.884 7.85C189.884 8.31 189.744 8.84 189.464 9.44C189.204 10.04 188.784 10.66 188.204 11.3C187.964 11.56 187.694 11.82 187.394 12.08C187.094 12.32 186.834 12.5 186.614 12.62C187.594 12.52 188.514 12.18 189.374 11.6C190.234 11 191.004 10.41 191.684 9.83C191.784 9.77 191.854 9.74 191.894 9.74C191.994 9.74 192.044 9.79 192.044 9.89C192.044 9.97 191.994 10.06 191.894 10.16C191.034 10.98 190.104 11.67 189.104 12.23C188.124 12.79 187.034 13.06 185.834 13.04C185.134 13.42 184.444 13.72 183.764 13.94C183.104 14.16 182.474 14.27 181.874 14.27ZM183.224 13.43C183.504 13.43 183.804 13.38 184.124 13.28C184.444 13.18 184.764 13.05 185.084 12.89C184.964 12.89 184.844 12.83 184.724 12.71C184.624 12.59 184.574 12.43 184.574 12.23C184.574 11.83 184.724 11.42 185.024 11C185.324 10.58 185.694 10.22 186.134 9.92C186.574 9.62 187.004 9.47 187.424 9.47C187.664 9.47 187.884 9.54 188.084 9.68C188.304 9.8 188.424 9.97 188.444 10.19C188.784 9.81 189.014 9.4 189.134 8.96C189.274 8.52 189.344 8.11 189.344 7.73C189.344 7.21 189.174 6.82 188.834 6.56C188.514 6.28 188.074 6.14 187.514 6.14C186.974 6.14 186.374 6.33 185.714 6.71C185.074 7.09 184.464 7.58 183.884 8.18C183.324 8.78 182.854 9.43 182.474 10.13C182.114 10.83 181.934 11.5 181.934 12.14C181.934 13 182.364 13.43 183.224 13.43ZM193.796 14.15C193.596 14.15 193.356 14.1 193.076 14C192.796 13.92 192.516 13.76 192.236 13.52C192.456 13.22 192.776 12.82 193.196 12.32C193.596 11.8 194.026 11.23 194.486 10.61C194.946 9.99 195.376 9.37 195.776 8.75C195.456 9.07 195.106 9.41 194.726 9.77C194.346 10.13 193.966 10.46 193.586 10.76C193.506 10.84 193.416 10.88 193.316 10.88C193.236 10.88 193.196 10.84 193.196 10.76C193.196 10.66 193.276 10.54 193.436 10.4C193.996 9.9 194.616 9.33 195.296 8.69C195.996 8.03 196.506 7.36 196.826 6.68C196.926 6.44 196.976 6.22 196.976 6.02C196.976 5.76 196.926 5.6 196.826 5.54C196.746 5.48 196.706 5.4 196.706 5.3C196.706 5.12 196.796 5.03 196.976 5.03C197.076 5.03 197.156 5.05 197.216 5.09C197.436 5.19 197.646 5.38 197.846 5.66C198.046 5.94 198.146 6.36 198.146 6.92C198.146 7.24 198.106 7.61 198.026 8.03C197.946 8.43 197.806 8.89 197.606 9.41C197.906 9.01 198.206 8.62 198.506 8.24C198.826 7.86 199.116 7.52 199.376 7.22C199.916 6.6 200.456 6.16 200.996 5.9C201.556 5.62 202.056 5.48 202.496 5.48C203.016 5.48 203.436 5.63 203.756 5.93C204.076 6.23 204.236 6.62 204.236 7.1C204.236 7.48 204.136 7.87 203.936 8.27C203.876 8.43 203.736 8.68 203.516 9.02C203.296 9.34 203.056 9.69 202.796 10.07C202.536 10.45 202.296 10.79 202.076 11.09C201.816 11.41 201.636 11.69 201.536 11.93C201.436 12.15 201.386 12.33 201.386 12.47C201.386 12.67 201.496 12.77 201.716 12.77C201.996 12.77 202.386 12.62 202.886 12.32C203.186 12.14 203.526 11.9 203.906 11.6C204.306 11.28 204.696 10.96 205.076 10.64C205.476 10.3 205.796 10.02 206.036 9.8C206.116 9.72 206.186 9.68 206.246 9.68C206.326 9.68 206.366 9.73 206.366 9.83C206.366 9.95 206.316 10.06 206.216 10.16C205.616 10.72 204.916 11.33 204.116 11.99C203.336 12.65 202.566 13.16 201.806 13.52C201.186 13.82 200.616 13.97 200.096 13.97C199.656 13.97 199.306 13.86 199.046 13.64C198.786 13.4 198.656 13.06 198.656 12.62C198.656 12.3 198.736 11.92 198.896 11.48C199.096 10.94 199.376 10.4 199.736 9.86C200.116 9.32 200.506 8.81 200.906 8.33C201.326 7.83 201.686 7.41 201.986 7.07C202.246 6.79 202.376 6.55 202.376 6.35C202.376 6.17 202.256 6.08 202.016 6.08C201.776 6.08 201.416 6.22 200.936 6.5C200.476 6.76 199.956 7.19 199.376 7.79C198.556 8.65 197.836 9.58 197.216 10.58C196.596 11.58 195.886 12.52 195.086 13.4C194.646 13.9 194.216 14.15 193.796 14.15ZM210.58 14.27C209.8 14.27 209.21 14.08 208.81 13.7C208.43 13.3 208.24 12.79 208.24 12.17C208.24 11.79 208.29 11.42 208.39 11.06C208.49 10.7 208.6 10.38 208.72 10.1C208.58 10.24 208.44 10.37 208.3 10.49C208.18 10.59 208.08 10.67 208 10.73C207.92 10.79 207.85 10.82 207.79 10.82C207.71 10.82 207.67 10.77 207.67 10.67C207.67 10.53 207.77 10.37 207.97 10.19C208.67 9.61 209.22 9.1 209.62 8.66C210.02 8.2 210.44 7.78 210.88 7.4C211.62 6.76 212.41 6.26 213.25 5.9C214.09 5.54 214.93 5.36 215.77 5.36C216.65 5.36 217.34 5.57 217.84 5.99C218.34 6.41 218.59 7.03 218.59 7.85C218.59 8.31 218.45 8.84 218.17 9.44C217.91 10.04 217.49 10.66 216.91 11.3C216.67 11.56 216.4 11.82 216.1 12.08C215.8 12.32 215.54 12.5 215.32 12.62C216.3 12.52 217.22 12.18 218.08 11.6C218.94 11 219.71 10.41 220.39 9.83C220.49 9.77 220.56 9.74 220.6 9.74C220.7 9.74 220.75 9.79 220.75 9.89C220.75 9.97 220.7 10.06 220.6 10.16C219.74 10.98 218.81 11.67 217.81 12.23C216.83 12.79 215.74 13.06 214.54 13.04C213.84 13.42 213.15 13.72 212.47 13.94C211.81 14.16 211.18 14.27 210.58 14.27ZM211.93 13.43C212.21 13.43 212.51 13.38 212.83 13.28C213.15 13.18 213.47 13.05 213.79 12.89C213.67 12.89 213.55 12.83 213.43 12.71C213.33 12.59 213.28 12.43 213.28 12.23C213.28 11.83 213.43 11.42 213.73 11C214.03 10.58 214.4 10.22 214.84 9.92C215.28 9.62 215.71 9.47 216.13 9.47C216.37 9.47 216.59 9.54 216.79 9.68C217.01 9.8 217.13 9.97 217.15 10.19C217.49 9.81 217.72 9.4 217.84 8.96C217.98 8.52 218.05 8.11 218.05 7.73C218.05 7.21 217.88 6.82 217.54 6.56C217.22 6.28 216.78 6.14 216.22 6.14C215.68 6.14 215.08 6.33 214.42 6.71C213.78 7.09 213.17 7.58 212.59 8.18C212.03 8.78 211.56 9.43 211.18 10.13C210.82 10.83 210.64 11.5 210.64 12.14C210.64 13 211.07 13.43 211.93 13.43Z" fill="black"/>
</svg>
